<svg width="24" height="22" viewBox="0 0 24 22" fill="none" xmlns="http://www.w3.org/2000/svg">
  <path d="M7.824 19.448C8.112 19.448 8.352 19.528 8.544 19.688C8.736 19.848 8.832 20.08 8.832 20.384C8.832 20.688 8.736 20.92 8.544 21.08C8.352 21.24 8.112 21.32 7.824 21.32H6.096C5.264 21.32 4.616 21.088 4.152 20.624C3.704 20.16 3.48 19.504 3.48 18.656V13.568C3.48 12.928 3.36 12.464 3.12 12.176C2.88 11.872 2.456 11.704 1.848 11.672C1.528 11.656 1.28 11.56 1.104 11.384C0.944 11.208 0.864 10.976 0.864 10.688C0.864 10.416 0.944 10.192 1.104 10.016C1.28 9.84 1.528 9.744 1.848 9.728C2.456 9.696 2.88 9.536 3.12 9.248C3.36 8.944 3.48 8.472 3.48 7.832V2.744C3.48 1.896 3.704 1.24 4.152 0.775999C4.616 0.311999 5.264 0.079999 6.096 0.079999H7.824C8.112 0.079999 8.352 0.159999 8.544 0.319999C8.736 0.479999 8.832 0.711999 8.832 1.016C8.832 1.32 8.736 1.552 8.544 1.712C8.352 1.872 8.112 1.952 7.824 1.952H6.888C6.536 1.952 6.272 2.04 6.096 2.216C5.936 2.376 5.856 2.64 5.856 3.008V8.096C5.856 8.8 5.672 9.384 5.304 9.848C4.952 10.296 4.528 10.576 4.032 10.688C4.528 10.8 4.952 11.088 5.304 11.552C5.672 12.016 5.856 12.6 5.856 13.304V18.392C5.856 18.76 5.936 19.024 6.096 19.184C6.272 19.36 6.536 19.448 6.888 19.448H7.824ZM22.1241 9.728C22.4441 9.744 22.6841 9.84 22.8441 10.016C23.0201 10.192 23.1081 10.416 23.1081 10.688C23.1081 10.976 23.0201 11.208 22.8441 11.384C22.6841 11.56 22.4441 11.656 22.1241 11.672C21.5321 11.704 21.1161 11.864 20.8761 12.152C20.6521 12.44 20.5401 12.912 20.5401 13.568L20.5161 18.656C20.5161 19.504 20.2841 20.16 19.8201 20.624C19.3721 21.088 18.7241 21.32 17.8761 21.32H16.1481C15.8601 21.32 15.6201 21.24 15.4281 21.08C15.2521 20.92 15.1641 20.688 15.1641 20.384C15.1641 20.08 15.2601 19.848 15.4521 19.688C15.6441 19.528 15.8761 19.448 16.1481 19.448H17.1081C17.7961 19.448 18.1401 19.096 18.1401 18.392V13.304C18.1401 12.6 18.3161 12.016 18.6681 11.552C19.0361 11.088 19.4681 10.8 19.9641 10.688C19.4681 10.576 19.0361 10.296 18.6681 9.848C18.3161 9.384 18.1401 8.8 18.1401 8.096V3.008C18.1401 2.304 17.7961 1.952 17.1081 1.952H16.1481C15.8761 1.952 15.6441 1.872 15.4521 1.712C15.2601 1.552 15.1641 1.32 15.1641 1.016C15.1641 0.711999 15.2521 0.479999 15.4281 0.319999C15.6201 0.159999 15.8601 0.079999 16.1481 0.079999H17.8761C18.7241 0.079999 19.3721 0.311999 19.8201 0.775999C20.2841 1.24 20.5161 1.896 20.5161 2.744V7.832C20.5161 8.488 20.6281 8.96 20.8521 9.248C21.0921 9.536 21.5161 9.696 22.1241 9.728Z" fill="gray" />
</svg>
