<svg width="24" height="25" viewBox="0 0 24 25" fill="none" xmlns="http://www.w3.org/2000/svg">
    <circle cx="12" cy="13" r="11" stroke="white" stroke-width="2" />
    <path d="M15.7891 15.436C15.9931 15.64 16.0951 15.8723 16.0951 16.133C16.0951 16.3823 15.9987 16.609 15.8061 16.813C15.6134 17.0057 15.3867 17.102 15.1261 17.102C14.8427 17.102 14.5991 16.983 14.3951 16.745L11.9981 14.093L9.60107 16.745C9.38574 16.9717 9.14207 17.085 8.87007 17.085C8.62074 17.085 8.39974 16.9887 8.20707 16.796C8.01441 16.6033 7.91807 16.3823 7.91807 16.133C7.91807 15.8723 8.02007 15.64 8.22407 15.436L10.7061 12.733L8.36007 10.183C8.15607 9.979 8.05407 9.74667 8.05407 9.486C8.05407 9.22533 8.15041 9.00433 8.34307 8.823C8.53574 8.63033 8.75674 8.534 9.00607 8.534C9.27807 8.534 9.52174 8.64733 9.73707 8.874L11.9981 11.356L14.2591 8.874C14.4744 8.64733 14.7181 8.534 14.9901 8.534C15.2507 8.534 15.4717 8.63033 15.6531 8.823C15.8457 9.00433 15.9421 9.22533 15.9421 9.486C15.9421 9.74667 15.8401 9.979 15.6361 10.183L13.2901 12.733L15.7891 15.436Z" fill="white" />
</svg>