<svg width="62" height="62" viewBox="0 0 62 62" fill="none" xmlns="http://www.w3.org/2000/svg">
    <line x1="25.1023" y1="18.7383" x2="42.0728" y2="35.7089" stroke="white" stroke-width="3" />
    <line x1="32.1734" y1="32.8805" x2="45.6084" y2="46.3155" stroke="white" stroke-width="3" />
    <line x1="18.0312" y1="25.8094" x2="35.0018" y2="42.78" stroke="white" stroke-width="3" />
    <line x1="15.2028" y1="15.9099" x2="28.6378" y2="29.3449" stroke="white" stroke-width="3" />
    <mask id="path-5-inside-1" fill="white">
        <path d="M15.2907 15.8483C19.1515 11.6521 24.5212 9.16139 30.2184 8.9242C35.9156 8.68701 41.4737 10.7227 45.67 14.5836L43.4614 16.984C39.9018 13.709 35.1869 11.9821 30.3541 12.1833C25.5212 12.3845 20.9662 14.4973 17.6911 18.0569L15.2907 15.8483Z" />
    </mask>
    <path d="M15.2907 15.8483C19.1515 11.6521 24.5212 9.16139 30.2184 8.9242C35.9156 8.68701 41.4737 10.7227 45.67 14.5836L43.4614 16.984C39.9018 13.709 35.1869 11.9821 30.3541 12.1833C25.5212 12.3845 20.9662 14.4973 17.6911 18.0569L15.2907 15.8483Z" stroke="white" stroke-width="6" mask="url(#path-5-inside-1)" />
    <mask id="path-6-inside-2" fill="white">
        <path d="M46.5388 45.3244C44.607 47.5173 42.2484 49.2934 39.6071 50.5442C36.9658 51.7949 34.0972 52.4941 31.1766 52.5989C28.256 52.7037 25.3447 52.2119 22.6205 51.1537C19.8963 50.0955 17.4165 48.493 15.3325 46.4441L17.6193 44.1181C19.3872 45.8561 21.4908 47.2155 23.8016 48.1132C26.1125 49.0108 28.5821 49.428 31.0596 49.3391C33.5371 49.2502 35.9705 48.6571 38.2111 47.5961C40.4516 46.5351 42.4524 45.0285 44.0911 43.1682L46.5388 45.3244Z" />
    </mask>
    <path d="M46.5388 45.3244C44.607 47.5173 42.2484 49.2934 39.6071 50.5442C36.9658 51.7949 34.0972 52.4941 31.1766 52.5989C28.256 52.7037 25.3447 52.2119 22.6205 51.1537C19.8963 50.0955 17.4165 48.493 15.3325 46.4441L17.6193 44.1181C19.3872 45.8561 21.4908 47.2155 23.8016 48.1132C26.1125 49.0108 28.5821 49.428 31.0596 49.3391C33.5371 49.2502 35.9705 48.6571 38.2111 47.5961C40.4516 46.5351 42.4524 45.0285 44.0911 43.1682L46.5388 45.3244Z" stroke="white" stroke-width="6" mask="url(#path-6-inside-2)" />
</svg>
    