<svg width="24" height="24" viewBox="0 0 24 24" fill="none" xmlns="http://www.w3.org/2000/svg">
    <path d="M6.39379 18.153C4.75045 18.153 3.50379 17.728 2.65379 16.878C1.80379 16.028 1.37879 14.787 1.37879 13.155V7.018C1.37879 6.68933 1.47512 6.42867 1.66779 6.236C1.86045 6.032 2.12112 5.93 2.44979 5.93C2.77845 5.93 3.03912 6.032 3.23179 6.236C3.42445 6.42867 3.52079 6.68933 3.52079 7.018V13.274C3.52079 14.3053 3.76445 15.0873 4.25179 15.62C4.73912 16.1413 5.45312 16.402 6.39379 16.402C7.32312 16.402 8.03145 16.1357 8.51879 15.603C9.00612 15.0703 9.24979 14.294 9.24979 13.274V7.018C9.24979 6.68933 9.34612 6.42867 9.53879 6.236C9.73145 6.032 9.99212 5.93 10.3208 5.93C10.6495 5.93 10.9101 6.032 11.1028 6.236C11.2955 6.42867 11.3918 6.68933 11.3918 7.018V13.155C11.3918 14.7757 10.9668 16.0167 10.1168 16.878C9.26679 17.728 8.02579 18.153 6.39379 18.153ZM15.0026 18.102C14.6739 18.102 14.4076 18.0057 14.2036 17.813C14.0109 17.609 13.9146 17.337 13.9146 16.997V7.052C13.9146 6.72333 14.0052 6.46833 14.1866 6.287C14.3792 6.10567 14.6399 6.015 14.9686 6.015H19.1506C20.4312 6.015 21.4286 6.338 22.1426 6.984C22.8566 7.61867 23.2136 8.514 23.2136 9.67C23.2136 10.826 22.8566 11.727 22.1426 12.373C21.4286 13.019 20.4312 13.342 19.1506 13.342H16.1076V16.997C16.1076 17.337 16.0056 17.609 15.8016 17.813C15.6089 18.0057 15.3426 18.102 15.0026 18.102ZM18.8786 11.659C20.3859 11.659 21.1396 11.0017 21.1396 9.687C21.1396 8.37233 20.3859 7.715 18.8786 7.715H16.1076V11.659H18.8786Z" fill="white" />
</svg>
    